<svg xmlns="http://www.w3.org/2000/svg" width="874" height="472" viewBox="0 0 874 472" xmlns:xlink="http://www.w3.org/1999/xlink">
  <defs>
    <linearGradient id="a" x1="50%" x2="50%" y1="0%" y2="98.733%">
      <stop stop-color="#619D3A" offset="0%"/>
      <stop stop-color="#AFDA45" offset="100%"/>
    </linearGradient>
    <polygon id="b" points="0 74 150.986 74 150.986 .23 0 .23"/>
  </defs>
  <g fill="none" fill-rule="evenodd">
    <rect width="874" height="472" fill="#1B1C24"/>
    <circle cx="437" cy="277" r="330" fill="url(#a)"/>
    <text fill="#FFFFFF" font-family="Montserrat-SemiBold, Montserrat" font-size="96" font-weight="500" letter-spacing="1">
      <tspan x="167.444" y="221">Bootzooka</tspan>
    </text>
    <text fill="#FFFFFF" font-family="Montserrat-SemiBold, Montserrat" font-size="20" font-weight="500">
      <tspan x="220.83" y="287">Simple project to quickly start developing </tspan> <tspan x="236.12" y="316.148">a Scala-based microservice or web app</tspan>
    </text>
    <circle cx="61" cy="47" r="11" fill="#FF66C4"/>
    <circle cx="50" cy="403" r="11" fill="#C9E265"/>
    <circle cx="50" cy="171" r="11" fill="#7ED957"/>
    <circle cx="778" cy="58" r="11" fill="#FF66C4"/>
    <circle cx="813" cy="193" r="11" fill="#7ED957"/>
    <circle cx="807.5" cy="375.5" r="5.5" fill="#CB6CE6"/>
    <g transform="translate(362 352)">
      <polygon fill="#FFFFFF" points="55 34 61 34 61 17 55 17"/>
      <polygon fill="#FFFFFF" points="90 34 96 34 96 17 90 17"/>
      <polygon fill="#FFFFFF" points="69 34 75 34 75 17 69 17"/>
      <polygon fill="#FFFFFF" points="76 37 82 37 82 20 76 20"/>
      <polygon fill="#FFFFFF" points="84 34 90 34 90 17 84 17"/>
      <path fill="#FFFFFF" d="M67.223998 19.4509C67.223998 20.8859714 66.0670826 22.0488286 64.6397194 22.0488286 63.2123562 22.0488286 62.0546896 20.8859714 62.0546896 19.4509 62.0546896 18.0165837 63.2123562 16.8537265 64.6397194 16.8537265 66.0670826 16.8537265 67.223998 18.0165837 67.223998 19.4509M52.7522632 30.8791429C52.7522632 32.3142143 51.596099 33.4778265 50.167609 33.4778265 48.7406214 33.4778265 47.583706 32.3142143 47.583706 30.8791429 47.583706 29.4455816 48.7406214 28.2819694 50.167609 28.2819694 51.596099 28.2819694 52.7522632 29.4455816 52.7522632 30.8791429M103.402546 30.8791429C103.402546 32.3142143 102.246382 33.4778265 100.819019 33.4778265 99.3916557 33.4778265 98.2351159 32.3142143 98.2351159 30.8791429 98.2351159 29.4455816 99.3916557 28.2819694 100.819019 28.2819694 102.246382 28.2819694 103.402546 29.4455816 103.402546 30.8791429M16.5390826 55.9188551L17.1626149 55.1769673C18.0919035 56.0207939 18.9821274 56.4425184 20.2160453 56.4425184 21.412401 56.4425184 22.2015826 55.8021918 22.2015826 54.9202327L22.2015826 54.8953143C22.2015826 54.0643245 21.7557194 53.5908755 19.885498 53.1940694 17.8364806 52.7466714 16.8951721 52.0821816 16.8951721 50.6108653L16.8951721 50.5859469C16.8951721 49.1788143 18.1298413 48.1428143 19.820891 48.1428143 21.1194159 48.1428143 22.0475776 48.5139469 22.9520751 49.2422429L22.3668562 50.0226408C21.5397368 49.3449367 20.7122418 49.0508245 19.7953488 49.0508245 18.638809 49.0508245 17.9014632 49.6907735 17.9014632 50.4960898L17.9014632 50.5210082C17.9014632 51.3652122 18.358595 51.8386612 20.3174632 52.2611408 22.3030005 52.6949469 23.2187667 53.4251306 23.2187667 54.7922429L23.2187667 54.8186714C23.2187667 56.3522837 21.9469109 57.3509061 20.1777318 57.3509061 18.7657692 57.3509061 17.6084781 56.8774571 16.5390826 55.9188551M33.9683891 52.7723449L33.9683891 52.7466714C33.9683891 50.7128041 32.492195 49.0508245 30.4563244 49.0508245 28.4215806 49.0508245 26.9701776 50.6878857 26.9701776 52.7213755L26.9701776 52.7466714C26.9701776 54.7801612 28.4463716 56.4425184 30.4822423 56.4425184 32.5181129 56.4425184 33.9683891 54.8054571 33.9683891 52.7723449M25.9270756 52.7723449L25.9270756 52.7466714C25.9270756 50.2778653 27.7721303 48.1171408 30.4822423 48.1171408 33.1927299 48.1171408 35.011491 50.2525694 35.011491 52.7213755L35.011491 52.7466714C35.011491 55.2147224 33.1668119 57.3758245 30.4563244 57.3758245 27.7465881 57.3758245 25.9270756 55.2403959 25.9270756 52.7723449"/>
      <polygon fill="#FFFFFF" points="38.19 48.271 44.59 48.271 44.59 49.204 39.195 49.204 39.195 52.401 44.018 52.401 44.018 53.322 39.195 53.322 39.195 57.223 38.19 57.223"/>
      <polygon fill="#FFFFFF" points="50.317 49.204 47.326 49.204 47.326 48.27 54.325 48.27 54.325 49.204 51.334 49.204 51.334 57.222 50.317 57.222"/>
      <polygon fill="#FFFFFF" points="56.574 48.271 57.669 48.271 60.213 55.727 62.656 48.246 63.484 48.246 65.926 55.727 68.471 48.271 69.527 48.271 66.346 57.286 65.494 57.286 63.051 50.023 60.595 57.286 59.755 57.286"/>
      <path fill="#FFFFFF" d="M77.0314104 53.9484918L75.0079353 49.3823898 72.9720647 53.9484918 77.0314104 53.9484918zM74.5504279 48.2063184L75.4913607 48.2063184 79.5507065 57.2226143 78.4700423 57.2226143 77.4254378 54.8568796 72.5784129 54.8568796 71.5225398 57.2226143 70.4910821 57.2226143 74.5504279 48.2063184zM85.72871 52.8365286C87.0640458 52.8365286 88.018501 52.1456102 88.018501 50.9944571L88.018501 50.9695388C88.018501 49.8693551 87.1789861 49.2041102 85.7411055 49.2041102L82.9930557 49.2041102 82.9930557 52.8365286 85.72871 52.8365286zM81.9878915 48.2704265L85.8173567 48.2704265C86.9111677 48.2704265 87.7901229 48.6022939 88.3490483 49.1656 88.7813891 49.6009163 89.0368119 50.227651 89.0368119 50.9302735L89.0368119 50.9559469C89.0368119 52.4397224 88.018501 53.3092224 86.6185582 53.565202L89.3542124 57.2225388 88.1202945 57.2225388 85.5371428 53.7434061 82.9930557 53.7434061 82.9930557 57.2225388 81.9878915 57.2225388 81.9878915 48.2704265z"/>
      <polygon fill="#FFFFFF" points="92.985 48.271 99.424 48.271 99.424 49.192 93.99 49.192 93.99 52.248 98.85 52.248 98.85 53.168 93.99 53.168 93.99 56.302 99.487 56.302 99.487 57.223 92.985 57.223"/>
      <polygon fill="#FFFFFF" points="103.261 48.271 105.372 48.271 107.714 52.056 110.056 48.271 112.167 48.271 112.167 57.223 110.221 57.223 110.221 51.378 107.714 55.202 107.664 55.202 105.182 51.416 105.182 57.223 103.261 57.223"/>
      <mask id="c" fill="white">
        <use xlink:href="#b"/>
      </mask>
      <polygon fill="#FFFFFF" points="115.447 57.223 117.407 57.223 117.407 48.271 115.447 48.271" mask="url(#c)"/>
      <polygon fill="#FFFFFF" points="129.245 48.271 131.204 48.271 131.204 55.432 134.447 55.432 134.447 57.223 129.245 57.223" mask="url(#c)"/>
      <polygon fill="#FFFFFF" points="121.061 48.271 123.019 48.271 123.019 55.432 126.263 55.432 126.263 57.223 121.061 57.223" mask="url(#c)"/>
    </g>
  </g>
</svg>
